<svg xmlns="http://www.w3.org/2000/svg" viewBox="0 0 146.08 135.45"><defs><style>.cls-1,.cls-2{fill:none;}.cls-1,.cls-2,.cls-3{stroke:#b61a3b;stroke-linecap:round;stroke-linejoin:round;}.cls-1,.cls-3{stroke-width:4px;}.cls-2{stroke-width:2px;}.cls-3{fill:#fff;}</style></defs><g id="Capa_2" data-name="Capa 2"><g id="INICIO"><g id="S:_BENEFICIOS" data-name="S: BENEFICIOS"><path class="cls-1" d="M17.72,107.61,92.34,34.1A26.22,26.22,0,0,1,130.14,5L115,16.29l2.06,14L131,32.51l11.05-14.39a26.19,26.19,0,0,1-27.59,36.06L38.66,128.87a14.92,14.92,0,0,1-20.94-21.26Z"/><line class="cls-2" x1="100.53" y1="47.83" x2="30.6" y2="116.72"/><path class="cls-3" d="M118,106,89.22,76.66A9.14,9.14,0,0,1,77.11,64.32l-10-10.15L44.08,76.82,54.05,87A9.14,9.14,0,0,1,66.16,99.31l28.78,29.3A16.16,16.16,0,1,0,118,106Z"/><line class="cls-1" x1="2" y1="10.9" x2="55.13" y2="65"/><line class="cls-2" x1="87.3" y1="92.98" x2="104.03" y2="110.02"/><line class="cls-2" x1="82.09" y1="98.09" x2="98.82" y2="115.13"/></g></g></g></svg>