<svg xmlns="http://www.w3.org/2000/svg" viewBox="0 0 192.75 88.14"><defs><style>.cls-1,.cls-3{fill:none;}.cls-1,.cls-2,.cls-3{stroke:#b61a3b;stroke-linecap:round;stroke-linejoin:round;}.cls-1,.cls-2{stroke-width:4px;}.cls-2{fill:#fff;}.cls-3{stroke-width:2px;}</style></defs><g id="Capa_2" data-name="Capa 2"><g id="INICIO"><g id="S:_BENEFICIOS" data-name="S: BENEFICIOS"><path class="cls-1" d="M185.22,40.81c-3.2-7.35-13.86-24.59-13.86-24.59H154.42V10.85H138.05v5.37h-6.57V52.84H20.25V72.58h170.5S190.75,50.55,185.22,40.81Z"/><polyline class="cls-1" points="123.98 10.85 123.98 46.19 20.25 46.19 2 58.71"/><path class="cls-1" d="M141.44,24.78v18.3h32.42A116.19,116.19,0,0,0,164,24.78Z"/><circle class="cls-2" cx="46.98" cy="73.73" r="12.41"/><circle class="cls-2" cx="156.43" cy="73.73" r="12.41"/><circle class="cls-1" cx="46.95" cy="73.64" r="4.51"/><circle class="cls-1" cx="156.43" cy="73.64" r="4.51"/><path class="cls-2" d="M23.23,16,18.18,20v6.67l-2.93,2.45v4.56H116.07v-5l-3.58-1.3-.16-3.75s-11.79-7.17-23.2-7.49C83.51,9.79,84.24,9.19,74.7,2.61c-7.37-.74-19.5-.88-26.22,0C40.9,7.69,33.82,16.13,33.82,16.13Z"/><circle class="cls-2" cx="89.17" cy="34.74" r="8.42"/><circle class="cls-2" cx="35.08" cy="34.74" r="8.42"/><circle class="cls-3" cx="89.17" cy="34.74" r="2.66"/><circle class="cls-3" cx="34.99" cy="34.74" r="2.66"/><line class="cls-2" x1="61.51" y1="3.87" x2="61.51" y2="32.64"/><line class="cls-2" x1="90.53" y1="16.26" x2="34.5" y2="16.26"/></g></g></g></svg>