<svg xmlns="http://www.w3.org/2000/svg" viewBox="0 0 186.53 135.44"><defs><style>.cls-1{fill:#fff;stroke-width:4px;}.cls-1,.cls-2{stroke:#b61a3b;stroke-linecap:round;stroke-linejoin:round;}.cls-2{fill:none;stroke-width:2px;}</style></defs><g id="Capa_2" data-name="Capa 2"><g id="INICIO"><g id="S:_BENEFICIOS" data-name="S: BENEFICIOS"><rect class="cls-1" x="12.51" y="32.56" width="74.3" height="18.15" rx="6"/><path class="cls-1" d="M71.24,18c-4.86-1.22-12.67-2-21-2h-.9c-8.36.05-16.17.82-21,2-3.41,2.29-6.94,14.52-6.94,14.52H78.18S74.65,20.33,71.24,18Z"/><path class="cls-1" d="M18.65,50.71h9.87a0,0,0,0,1,0,0v8.35A3.55,3.55,0,0,1,25,62.61H22.2a3.55,3.55,0,0,1-3.55-3.55V50.71A0,0,0,0,1,18.65,50.71Z"/><path class="cls-1" d="M70.33,50.71H80.2a0,0,0,0,1,0,0v8.35a3.55,3.55,0,0,1-3.55,3.55H73.88a3.55,3.55,0,0,1-3.55-3.55V50.71A0,0,0,0,1,70.33,50.71Z"/><circle class="cls-1" cx="24.07" cy="41.95" r="4.45"/><circle class="cls-1" cx="75.26" cy="41.95" r="4.45"/><path class="cls-1" d="M81.07,27.63a2.38,2.38,0,0,0-2,.87l-1.91.77.62,1.88,2.23-1h0a3.36,3.36,0,0,0,1.09.19c1.2,0,2.18-.61,2.18-1.36S82.27,27.63,81.07,27.63Z"/><path class="cls-1" d="M18.74,27.63a2.38,2.38,0,0,1,2,.87l1.91.77-.62,1.88-2.23-1h0a3.47,3.47,0,0,1-1.1.19c-1.2,0-2.18-.61-2.18-1.36S17.54,27.63,18.74,27.63Z"/><line class="cls-2" x1="37.68" y1="39.24" x2="61.05" y2="39.24"/><line class="cls-2" x1="37.68" y1="44.49" x2="61.05" y2="44.49"/><path class="cls-1" d="M46.83,29.74a14.48,14.48,0,0,0,.58-5A22.71,22.71,0,0,0,2,24.7c0,.76,0,1.52.11,2.26a10.65,10.65,0,0,0,.47,2.78c4.09,10.9,22.12,41,22.12,41S42.74,40.64,46.83,29.74Z"/><circle class="cls-1" cx="25.24" cy="24.27" r="10.73"/><path class="cls-1" d="M184,92.46a14.46,14.46,0,0,0,.58-5,22.71,22.71,0,0,0-45.41,0c0,.77,0,1.52.11,2.26a10.65,10.65,0,0,0,.47,2.78c4.09,10.9,22.12,41,22.12,41S179.86,103.36,184,92.46Z"/><circle class="cls-1" cx="162.36" cy="86.99" r="10.73"/><path class="cls-1" d="M96.44,44.16C149,57.61,106.72,71.21,92.78,75.24c-31.08,9-73.08,36.35,48.34,37.41"/></g></g></g></svg>