<svg xmlns="http://www.w3.org/2000/svg" viewBox="0 0 139.87 132.93"><defs><style>.cls-1{fill:none;stroke:#b61a3b;stroke-linecap:round;stroke-linejoin:round;stroke-width:4px;}.cls-2{fill:#b61a3b;}</style></defs><g id="Capa_2" data-name="Capa 2"><g id="INICIO"><g id="S:_BENEFICIOS" data-name="S: BENEFICIOS"><rect class="cls-1" x="2" y="32.28" width="135.87" height="33.19" rx="6"/><path class="cls-1" d="M109.4,5.74C100.52,3.5,86.24,2.08,71,2H69.3C54,2.08,39.73,3.5,30.85,5.74c-6.25,4.18-12.7,26.54-12.7,26.54h104S115.65,9.92,109.4,5.74Z"/><path class="cls-1" d="M13.24,65.48h18a0,0,0,0,1,0,0V82.24a5,5,0,0,1-5,5h-8a5,5,0,0,1-5-5V65.48A0,0,0,0,1,13.24,65.48Z"/><path class="cls-1" d="M115.88,66.79h18a0,0,0,0,1,0,0V83.55a5,5,0,0,1-5,5h-8a5,5,0,0,1-5-5V66.79A0,0,0,0,1,115.88,66.79Z"/><rect class="cls-1" x="61.07" y="73.7" width="16.53" height="57.23"/><line class="cls-1" x1="42.47" y1="73.7" x2="97" y2="73.7"/><line class="cls-1" x1="52.79" y1="130.93" x2="86.69" y2="130.93"/><circle class="cls-1" cx="23.15" cy="49.46" r="8.14"/><circle class="cls-1" cx="116.76" cy="49.46" r="8.14"/><path class="cls-2" d="M127.38,23.27a4.4,4.4,0,0,0-3.71,1.58l-3.49,1.42,1.13,3.43,4.07-1.82h0a5.74,5.74,0,0,0,2,.35c2.2,0,4-1.11,4-2.48S129.58,23.27,127.38,23.27Z"/><path class="cls-2" d="M13.4,23.27a4.4,4.4,0,0,1,3.71,1.58l3.5,1.42L19.48,29.7,15.4,27.88h0a5.74,5.74,0,0,1-2,.35c-2.2,0-4-1.11-4-2.48S11.2,23.27,13.4,23.27Z"/><line class="cls-1" x1="48.03" y1="44.5" x2="90.77" y2="44.5"/><line class="cls-1" x1="48.03" y1="54.1" x2="90.77" y2="54.1"/></g></g></g></svg>