<svg xmlns="http://www.w3.org/2000/svg" viewBox="0 0 50.89 49.52"><defs><style>.cls-1{fill:none;stroke:#1e1e1e;stroke-miterlimit:10;stroke-width:2px;}</style></defs><g id="Capa_2" data-name="Capa 2"><g id="INICIO"><g id="Encabezado"><g id="Buscador_copia_2" data-name="Buscador copia 2"><path class="cls-1" d="M49.83,20.5c.13-1.61-4.1-.9-4.1-.9a22.67,22.67,0,0,1-2.42,2.24L42,16.31c-.63-4.68-3.39-8.15-9.34-8.14H22.48c-.06.42-.16,3.48-.29,3.88H32.1c2.32,0,4.45.85,5,3.31l1.63,7.5H18.26v7.3H28.51c2.18,0,2.18,3.75,0,3.75H18.27V40H32.61v3.89c0,1.58,2,2.87,4.36,2.87s4.37-1.29,4.37-2.87V39.59a5,5,0,0,0,3.49-4.46v-7c0-1.54,0-2.39-.51-3.25L49.83,24A25.6,25.6,0,0,0,49.83,20.5ZM38.7,33.9H35.56A1.87,1.87,0,0,1,33.69,32h0a1.87,1.87,0,0,1,1.87-1.87H38.7A1.87,1.87,0,0,1,40.57,32h0A1.87,1.87,0,0,1,38.7,33.9Z"/><path class="cls-1" d="M17.93,9.06a8.47,8.47,0,0,0-4.26-7.33V8.51L9.46,10.93,5.25,8.5V1.73a8.45,8.45,0,0,0,.39,14.88V44.53a4,4,0,0,0,8,0l0-28.09A8.45,8.45,0,0,0,17.93,9.06Z"/></g></g></g></g></svg>