<svg xmlns="http://www.w3.org/2000/svg" viewBox="0 0 36.2 48.27"><defs><style>.cls-1{fill:#1e1e1e;}</style></defs><g id="Capa_2" data-name="Capa 2"><g id="INICIO"><g id="Encabezado"><g id="Buscador_copia_2" data-name="Buscador copia 2"><path class="cls-1" d="M15.73,33.4l-.64,5.71a1,1,0,0,0,1,1.12h4a1,1,0,0,0,1-1.12l-.63-5.71a4,4,0,0,0,1.64-3.23,4,4,0,1,0-8,0A3.93,3.93,0,0,0,15.73,33.4Zm2.37-5.24a2,2,0,0,1,2,2A2,2,0,0,1,19,32a1,1,0,0,0-.56,1L19,38.21H17.21L17.8,33a1,1,0,0,0-.57-1,2,2,0,0,1,.87-3.81Z"/><path class="cls-1" d="M35.2,18.1h-3v-4A14.08,14.08,0,0,0,4,14.08v4H1a1,1,0,0,0-1,1V44.25a4,4,0,0,0,4,4H32.18a4,4,0,0,0,4-4V19.11A1,1,0,0,0,35.2,18.1ZM6,14.08a12.07,12.07,0,0,1,24.14,0v4h-3v-4C27.16,8.53,23.65,5,18.1,5s-9,3.51-9,9.06v4H6Zm19.12,0v4H11.06v-4c0-4.44,2.61-7,7-7S25.15,9.64,25.15,14.08Zm9,30.17a2,2,0,0,1-2,2H4a2,2,0,0,1-2-2V20.11H34.19Z"/></g></g></g></g></svg>