<svg xmlns="http://www.w3.org/2000/svg" viewBox="0 0 48.28 48.28"><defs><style>.cls-1{fill:#1e1e1e;}</style></defs><g id="Capa_2" data-name="Capa 2"><g id="INICIO"><g id="Encabezado"><g id="Buscador_copia_2" data-name="Buscador copia 2"><path class="cls-1" d="M24.14,0A24.14,24.14,0,1,0,48.28,24.14,24.14,24.14,0,0,0,24.14,0ZM45.8,30.33l-.49,1.53a23,23,0,0,1-2.49,4.86l-1,1.29A23.05,23.05,0,0,1,38,41.87l-1.3,1a22.49,22.49,0,0,1-4.86,2.48l-1.53.49a22.28,22.28,0,0,1-5.39.85h-1.6A22.28,22.28,0,0,1,18,45.8l-1.54-.49a22.69,22.69,0,0,1-4.85-2.49l-1.3-1A22.68,22.68,0,0,1,6.41,38l-1-1.29A22.24,22.24,0,0,1,3,31.86l-.49-1.53a21.82,21.82,0,0,1-.86-5.39V23.33A22.28,22.28,0,0,1,2.48,18L3,16.41a22.65,22.65,0,0,1,2.48-4.85l1-1.3a22.62,22.62,0,0,1,3.85-3.85l1.3-1A22.16,22.16,0,0,1,16.41,3L18,2.49a21.81,21.81,0,0,1,5.38-.86h1.61a22.28,22.28,0,0,1,5.39.85l1.53.5a22.49,22.49,0,0,1,4.86,2.48l1.3,1a22.62,22.62,0,0,1,3.85,3.85l1,1.3a22.58,22.58,0,0,1,2.48,4.84L45.8,18a22.28,22.28,0,0,1,.85,5.38v1.61A22.28,22.28,0,0,1,45.8,30.33Z"/><path class="cls-1" d="M24.14,10.46A13.68,13.68,0,1,0,37.82,24.14,13.67,13.67,0,0,0,24.14,10.46ZM34.49,18a12,12,0,0,1,1.66,5.1l-5-.41a.79.79,0,0,1-.74-.86.84.84,0,0,1,.28-.55Zm-7.66-5.58-1.95,4.67a.8.8,0,0,1-1.05.43.79.79,0,0,1-.43-.43l-1.95-4.67A11.92,11.92,0,0,1,26.83,12.38ZM13.79,18l3.83,3.28a.81.81,0,0,1,.09,1.14.84.84,0,0,1-.55.28l-5,.4A12.15,12.15,0,0,1,13.79,18Zm6.78,12.35L19.4,35.24a12.15,12.15,0,0,1-4.34-3.17h0l4.31-2.63a.81.81,0,0,1,1.2.87Zm8.31,4.93h0l-1.17-4.93a.79.79,0,0,1,.59-1,.81.81,0,0,1,.61.09l4.3,2.63A12.12,12.12,0,0,1,28.88,35.24Zm.87-7.17a2.42,2.42,0,0,0-3.61,2.62l1.21,5.07a11.67,11.67,0,0,1-6.42,0h0l1.2-5.07a2.41,2.41,0,0,0-3.6-2.62l-4.45,2.72a11.91,11.91,0,0,1-2-6.11l5.19-.42A2.42,2.42,0,0,0,18.67,20l-4-3.4a12.12,12.12,0,0,1,5.19-3.77l2,4.82A2.41,2.41,0,0,0,25.06,19a2.49,2.49,0,0,0,1.31-1.3l2-4.82a12.21,12.21,0,0,1,5.2,3.77l-4,3.4A2.42,2.42,0,0,0,31,24.26l5.19.42a12,12,0,0,1-2,6.11Z"/><path class="cls-1" d="M24.14,20.92a3.22,3.22,0,1,0,3.22,3.22A3.22,3.22,0,0,0,24.14,20.92Zm0,4.83a1.61,1.61,0,1,1,1.61-1.61A1.61,1.61,0,0,1,24.14,25.75Z"/></g></g></g></g></svg>