<svg xmlns="http://www.w3.org/2000/svg" viewBox="0 0 22.29 15.672"><defs><style>.cls-1{fill:#fff;}</style></defs><g id="PAGINA_LOCALES" data-name="PAGINA LOCALES"><path class="cls-1" d="M0,0V15.672H22.29V0ZM13.1,3.918h3.962V5.224H13.1ZM11.8,13.06H2.656v-.653A4.558,4.558,0,0,1,5.138,8.365a3.265,3.265,0,1,1,4.178,0A4.558,4.558,0,0,1,11.8,12.407Zm7.88,0H13.1V11.754h6.574Zm0-2.612H13.1V9.142h6.574Zm0-2.612H13.1V6.53h6.574Zm0-2.612H18.372V3.918h1.306Z"/><path class="cls-1" d="M7.227,3.918A1.959,1.959,0,1,0,9.186,5.877,1.961,1.961,0,0,0,7.227,3.918Z"/><path class="cls-1" d="M7.227,9.142a3.272,3.272,0,0,0-3.2,2.612h6.4A3.27,3.27,0,0,0,7.227,9.142Z"/></g></svg>