<svg xmlns="http://www.w3.org/2000/svg" viewBox="0 0 299.324 80.726"><defs><style>.cls-1{fill:#dd5e22;}.cls-2{fill:#d39a30;}.cls-3{fill:#fff;}</style></defs><g id="PAGINA_LOCALES" data-name="PAGINA LOCALES"><rect x="1.768" y="13.869" width="11.836" height="38.735"/><path d="M41.634,24.091V14.542s-24.8-1.529-24.8,19.88c0,0-.673,18.182,21.922,18.182V42.92s-11.967,2.367-13.2-8.636a6.957,6.957,0,0,1,.985-4.39C28.333,26.953,32.641,22.412,41.634,24.091Z"/><polyline class="cls-1" points="41.138 52.604 69.151 3.311 92.553 52.604 77.826 52.604 68.545 30.547 55.835 52.604 41.138 52.604"/><polyline class="cls-2" points="97.424 52.604 125.437 3.311 148.839 52.604 134.112 52.604 124.832 30.547 112.122 52.604 97.424 52.604"/><polyline points="182.833 14.811 207.547 14.811 207.547 25.503 199.477 25.503 199.477 52.604 190.399 52.604 190.488 25.503 182.821 25.503 182.833 14.811"/><path d="M170.292,15.29h9.582l-.1,24.465a16.708,16.708,0,0,1-1.437,6.893c-1.606,3.511-4.511,6.872-15.407,6.872,0,0-15.333,1.513-15.333-15.332V15.29h11.6v23.1s-.1,5.2,4.137,5.2c0,0,5.244.95,5.244-5.305v-23Z"/><path d="M296.18,14.945v9.818H277.516c-2.62,0-2.351.426-2.351,2.253,0,.6.067,1.144.572,1.11h13.691a6.171,6.171,0,0,1,5.951,4.453,22.715,22.715,0,0,1,.742,4.591,16.774,16.774,0,0,1,0,2.055c-.259,3.333-.348,14.052-9.023,14.052H266.053v-11.7h18.829a1.939,1.939,0,0,0,2.421-2.152s.4-2.152-2.421-2.152h-11.97s-6.859,1.614-6.859-9.281c0,0-1.749-13.046,10.087-13.046Z"/><circle cx="236.015" cy="26.445" r="25.778"/><path class="cls-3" d="M239.826,51.948V39.625c8.272-2.32,8.07-11.6,8.07-11.6.3-8.877-3.833-12-3.833-12-4.64-4.539-3.934-.2-3.934-.2l1.815,3.631a17.239,17.239,0,0,1,.833,5.589A5.805,5.805,0,0,1,239,30.456a8.911,8.911,0,0,1-6.695-.37A5.593,5.593,0,0,1,229,25.567a13.15,13.15,0,0,1,0-2.414,11.47,11.47,0,0,1,1.066-3.884,6.946,6.946,0,0,1,1.3-1.847l1.179-1.219a1.5,1.5,0,0,0,0-2.393,1.719,1.719,0,0,0-2.577.107l-4.262,5.03c-3.43,5.951-2.824,9.986-2.824,9.986-.2,6.657,7.061,9.986,7.061,9.986V51.5S232.631,52.6,239.826,51.948Z"/><path d="M187.232,76.269a10.681,10.681,0,0,0,4.787,1.2c1.983,0,3.034-.823,3.034-2.08,0-1.173-.911-1.864-3.2-2.67-3.186-1.13-5.268-2.866-5.268-5.655,0-3.257,2.733-5.733,7.224-5.733a11.339,11.339,0,0,1,4.877.961l-.955,3.463a9.169,9.169,0,0,0-3.986-.906c-1.881,0-2.778.87-2.778,1.847,0,1.213,1.057,1.749,3.535,2.684,3.381,1.265,4.947,3.02,4.947,5.719,0,3.189-2.442,5.926-7.7,5.926a12.332,12.332,0,0,1-5.394-1.188Z"/><path d="M213.736,72.647h-7.027v4.542h7.856v3.537H202.391v-19.1h11.765v3.537h-7.447v3.979h7.027Z"/><path d="M217.522,61.89a36.524,36.524,0,0,1,5.738-.411c2.833,0,4.818.432,6.181,1.514a4.849,4.849,0,0,1,1.767,4,5.069,5.069,0,0,1-3.371,4.694v.091c1.325.535,2.07,1.8,2.551,3.555a55.105,55.105,0,0,0,1.542,5.391h-4.421a24.143,24.143,0,0,1-1.314-4.451c-.532-2.388-1.334-3.026-3.111-3.048H221.8v7.5h-4.278ZM221.8,70.1h1.691c2.143,0,3.424-1.092,3.424-2.752,0-1.748-1.2-2.643-3.171-2.653a8.984,8.984,0,0,0-1.944.144Z"/><path d="M238.659,80.726l-6.126-19.1h4.729l2.311,8.086c.668,2.272,1.248,4.433,1.725,6.815h.059c.483-2.293,1.1-4.562,1.75-6.746l2.424-8.155h4.594l-6.422,19.1Z"/><path d="M256.492,61.627v19.1h-4.318v-19.1Z"/><path d="M274.258,80.2a12.463,12.463,0,0,1-4.881.824c-6.614,0-10.023-4.133-10.023-9.577,0-6.512,4.667-10.117,10.432-10.117a10.977,10.977,0,0,1,4.7.847l-.88,3.414a9.071,9.071,0,0,0-3.628-.717c-3.407,0-6.077,2.078-6.077,6.322,0,3.829,2.257,6.234,6.1,6.234a10.415,10.415,0,0,0,3.61-.617Z"/><path d="M288.453,72.647h-7.028v4.542h7.856v3.537H277.108v-19.1h11.765v3.537h-7.448v3.979h7.028Z"/></g></svg>