<svg xmlns="http://www.w3.org/2000/svg" viewBox="0 0 299.324 80.726"><defs><style>.cls-1,.cls-5{fill:#e57529;}.cls-2,.cls-3{fill:#272425;}.cls-3{font-size:33.144px;}.cls-3,.cls-5{font-family:KenyanCoffee-Regular, KenyanCoffee Regular;}.cls-4{letter-spacing:0.004em;}.cls-5{font-size:21.379px;}.cls-6{letter-spacing:-0.006em;}</style></defs><g id="PAGINA_LOCALES" data-name="PAGINA LOCALES"><path class="cls-1" d="M123.48,26.654h29.788s23.111-12.565-4.622-19.1L120.4,16.239S130.157,19.618,123.48,26.654Z"/><path class="cls-1" d="M117.317,15.689l27.22-8.134s1.323-1.783-25.832-1.841c-.913,0-1.842.019-2.746.061l-20.212.942v7.372S108.267,13.722,117.317,15.689Z"/><path class="cls-1" d="M91.124,7.555l.9,6.392-27.1,3.158-5.636-4.626A314.929,314.929,0,0,1,91.124,7.555Z"/><path class="cls-2" d="M3.3,42.4l10.855-1.676s7.634,3.686,11.229,4.021L16.8,48.021S6.9,46.591,3.3,42.4Z"/><path class="cls-2" d="M3.3,34.789c.14-.637.687-1.809,2.724-3.017a3.349,3.349,0,0,1,1.462-.259h8.122c1.208,0,1.994.366,1.448.678-1.231.7-2.967,1.818-3.281,2.656-.091.245-.761.435-1.612.435H4.922C4,35.282,3.246,35.057,3.3,34.789Z"/><path class="cls-2" d="M9.207,30.089l9.373.743L27.953,25.9,18.2,25.132S11.005,26.989,9.207,30.089Z"/><path class="cls-2" d="M21.9,23.994,30.9,25.286a45.891,45.891,0,0,1,10.9-3.625l-8.317-2.337S25.029,21.578,21.9,23.994Z"/><path class="cls-2" d="M34.373,18.864l9.718,2.24L62.363,17.48l-6.676-3.894S41.05,16.1,34.373,18.864Z"/><path class="cls-2" d="M3.659,40.975l9.4-.667V36.377H3.684c-1.346,0-2.437.356-2.437.8v3.168C1.247,40.755,2.419,41.063,3.659,40.975Z"/><text class="cls-3" transform="translate(-1.316 56.597) scale(3.066 1)">NAS<tspan class="cls-4" x="58.432" y="0">C</tspan><tspan x="77.787" y="0">A</tspan></text><text class="cls-5" transform="translate(56.553 72.862) scale(3.066 1)">mo<tspan class="cls-6" x="29.567" y="0">t</tspan><tspan x="36.515" y="0">ors</tspan></text><line class="cls-2" x1="68.04" y1="25.638" x2="97.871" y2="15.907"/><rect class="cls-2" x="57.653" y="25.088" width="11.699" height="3.816"/></g></svg>