<svg xmlns="http://www.w3.org/2000/svg" viewBox="0 0 190.9 63.34"><defs><style>.cls-1{fill:#fff;}</style></defs><title>01Recurso 3</title><g id="Capa_2" data-name="Capa 2"><g id="TIENDA"><g id="Encabezado_pagina_copia_9" data-name="Encabezado pagina copia 9"><path class="cls-1" d="M190.9,23.32c-.16.87-.27,1.74-.47,2.6a14.38,14.38,0,0,1-12,11.14,17.35,17.35,0,0,1-9-.66,14.3,14.3,0,0,1-8.91-9.71,16.14,16.14,0,0,1,1.93-14.27A14.36,14.36,0,0,1,172.2,6.3a16.51,16.51,0,0,1,8.92.58A14.34,14.34,0,0,1,190,16.26a34.17,34.17,0,0,1,.86,3.92l.09.39Zm-4.31-1.91a27.56,27.56,0,0,0-.56-3.09,11,11,0,0,0-5.7-7.21,10.72,10.72,0,0,0-7.22-.8,10.93,10.93,0,0,0-8.28,6.31,11.56,11.56,0,0,0-.76,7.17c.86,4.28,3.12,7.54,7.4,8.93a11.76,11.76,0,0,0,10.38-1.5C185.15,29.07,186.47,25.81,186.59,21.41Z"/><path class="cls-1" d="M113.51,63.34c-.42-.1-.85-.19-1.27-.32a7.1,7.1,0,1,1,3.76.17l-.66.15Zm6.52-7a5.54,5.54,0,0,0-5.59-5.69A5.67,5.67,0,0,0,114.36,62,5.51,5.51,0,0,0,120,56.32Z"/><path class="cls-1" d="M81.36,63.34a14.07,14.07,0,0,1-1.82-.53,7.09,7.09,0,1,1,3.81.46s-.1,0-.15.07Zm-4.68-7a5.6,5.6,0,1,0,5.55-5.72A5.53,5.53,0,0,0,76.68,56.35Z"/><path class="cls-1" d="M145.47,63.34A4.48,4.48,0,0,1,143.19,62c-.38-.48-.74-1-1.13-1.53l1.16-.71a17.12,17.12,0,0,0,1.31,1.56,2.22,2.22,0,0,0,2.37.48A2.15,2.15,0,0,0,148.46,60a2.19,2.19,0,0,0-.74-2c-.87-.82-1.82-1.56-2.74-2.33a5.84,5.84,0,0,1-1.7-1.87,3.19,3.19,0,0,1,.45-3.54,3.49,3.49,0,0,1,3.78-.84,5.85,5.85,0,0,1,2.3,2l-1.12.86c-.31-.33-.59-.67-.91-1a2.18,2.18,0,0,0-2.64-.36,1.85,1.85,0,0,0,0,3c.78.67,1.65,1.25,2.43,1.92a12,12,0,0,1,1.66,1.68,3.56,3.56,0,0,1-2.15,5.7l-.24.09Z"/><path class="cls-1" d="M0,17H1.29c5.37,0,10.75.1,16.12.08,2.93,0,5.85-.14,8.78-.25a18.43,18.43,0,0,0,2.22-.27A6,6,0,0,0,33.2,11a4.22,4.22,0,0,0-1.81-3.43,10.1,10.1,0,0,0-4.47-1.76,31.5,31.5,0,0,0-8.62-.13c-.32,0-.63.1-.95.1S17,6,17,6.27c0,1.71-.07,3.42-.09,5.13,0,1.2,0,2.4,0,3.64H10.51L10.7.16C11.48.1,12.27,0,13.05,0c4.33,0,8.67.09,13,.19A19.59,19.59,0,0,1,31.31,1,10.56,10.56,0,0,1,38.66,9a10.58,10.58,0,0,1-.39,7A9.91,9.91,0,0,1,32,21.47l-.53.19a9.74,9.74,0,0,0,.42,1C33,24.42,34,26.22,35.15,28c1.64,2.52,3.38,5,5,7.48a23.43,23.43,0,0,1,1.37,2.69,3.38,3.38,0,0,1,.17.63l-.45,0c-2,0-4,0-6,0a1,1,0,0,1-1-.6q-3.29-5.37-6.64-10.68c-.93-1.49-2-2.91-2.94-4.36a.93.93,0,0,0-.88-.44q-9.84,0-19.69-.06a1,1,0,0,1-.94-.53C2.18,20.54,1.21,19,.26,17.46.18,17.33.12,17.2,0,17Z"/><path class="cls-1" d="M83.61,18.41l-.33,2.47q-.63,4.74-1.24,9.48c-.26,2-.51,3.9-.78,5.85,0,.15-.15.4-.24.4-1.28,0-2.56,0-3.88,0,.1-.77.21-1.55.32-2.33q.92-6.12,1.81-12.26T81.06,9.91c.13-.86.27-1.72.38-2.58,0-.29.16-.34.41-.34a1.3,1.3,0,0,1,1.31.79q5.27,10.4,10.6,20.77c.11.22.27.42.44.7.39-.8.74-1.51,1.08-2.22q4.59-9.51,9.17-19c.54-1.1.77-1.23,2.09-1.12q2.11,14.94,4.25,30c-1-.07-2-.12-3-.2-.4,0-.93,0-1.17-.19s-.18-.74-.24-1.13q-.94-6.12-1.88-12.25l-.66-4.39c0-.08,0-.17-.1-.36-.12.23-.2.38-.27.54q-3.84,8-7.69,16A6.56,6.56,0,0,1,95,36.25a1.11,1.11,0,0,1-1.9,0,6.46,6.46,0,0,1-.77-1.18q-4.23-8.19-8.43-16.39l-.15-.28Z"/><path class="cls-1" d="M42.8,21.67A15.37,15.37,0,0,1,55.89,6.31c6.59-1.06,12,1.11,15.88,6.65a15.46,15.46,0,0,1,2.49,9.93,15,15,0,0,1-1.93,6.84,14.5,14.5,0,0,1-9.6,7,16.59,16.59,0,0,1-12.95-1.93A14,14,0,0,1,43.2,25C43,23.89,42.93,22.77,42.8,21.67ZM70,22c-.11-.89-.16-1.8-.35-2.67A11.19,11.19,0,0,0,64,11.38a10.93,10.93,0,0,0-7.95-.88,10.69,10.69,0,0,0-8,6.38,11.77,11.77,0,0,0-.6,7.36,11.38,11.38,0,0,0,5.38,7.67,11,11,0,0,0,7.75,1.14A11,11,0,0,0,70,22Z"/><path class="cls-1" d="M139.84,36.71h-4V7l2-.12a34,34,0,0,1,7.48.23,8.91,8.91,0,0,1,5.94,3.37,7.92,7.92,0,0,1-1.57,11,22.26,22.26,0,0,1-3,1.75c-.92.52-.78.44-.26,1.13,2.33,3,4.69,6.05,7,9.09.72.93,1.4,1.89,2.09,2.84.09.13.17.28.3.49h-2c-.78,0-1.56,0-2.33,0a1.22,1.22,0,0,1-1.1-.5c-.93-1.17-1.88-2.33-2.79-3.51-2-2.61-4-5.24-6-7.84a16.12,16.12,0,0,0-1.27-1.35l-.15,0A10.77,10.77,0,0,0,140,25c-.06,2.55-.11,5.09-.14,7.64C139.82,34,139.84,35.37,139.84,36.71Zm.06-17.33a16.44,16.44,0,0,0,5.43-.19,3.51,3.51,0,0,0,2.94-3.34c.25-2.5-.71-4.15-3.22-4.66a18.91,18.91,0,0,0-4.87-.12c-.34,0-.27.27-.27.47,0,2.27,0,4.55,0,6.82Z"/><path class="cls-1" d="M132.09,32.79v4H114.53c0-10,.1-19.86.16-29.81h17.49v4.08H118.76v7.62h13.29v4.16H118.69c.06,3.31.12,6.58.18,9.94Z"/><path class="cls-1" d="M16.9,24.59V38.64H10.56v-14Z"/><path class="cls-1" d="M61.65,60.45c.11-.2.19-.34.26-.49q2.45-4.93,4.88-9.89a2,2,0,0,1,.14-.29,1.27,1.27,0,0,1,.27-.18.66.66,0,0,1,.14.26c.19,1.3.37,2.62.56,3.93.29,2,.59,4,.88,6.05.15,1,.29,2.07.44,3.13H67.85c-.44-3.08-.87-6.17-1.31-9.26h-.08l-.93,1.87q-1.74,3.52-3.49,7a.72.72,0,0,1-.42.37c-.1,0-.29-.21-.37-.37Q59.12,58.34,57,54.07c-.07-.15-.15-.29-.28-.54-.1.72-.19,1.33-.28,1.95-.26,2-.53,4-.79,6,0,.39-.1.78-.14,1.18s-.13.4-.43.38-.64,0-1,0c.62-4.48,1.24-8.91,1.85-13.34.36-.07.36-.07.55.32q1.66,3.33,3.31,6.66Z"/><path class="cls-1" d="M132.15,56.87,136.89,63c-.59,0-1.12,0-1.64,0-.13,0-.27-.22-.38-.36-1.39-1.79-2.79-3.58-4.16-5.39a.86.86,0,0,0-1.06-.36V63h-1.39V49.64a.43.43,0,0,1,.13,0c1.73,0,3.45,0,5.17.12a3.34,3.34,0,0,1,3.11,3.1,3.4,3.4,0,0,1-2.53,3.74C133.51,56.71,132.85,56.76,132.15,56.87Zm-2.49-1.46c1,0,1.86,0,2.77,0a5.25,5.25,0,0,0,1.31-.19,2.06,2.06,0,0,0,1.48-2.15,2,2,0,0,0-1.63-1.94c-1.29-.15-2.6-.14-3.93-.2Z"/><path class="cls-1" d="M38.94,54.87v1.39H14V54.87Z"/><path class="cls-1" d="M159.59,56.25V54.86h24.9v1.39Z"/><path class="cls-1" d="M97.65,51h-3V49.61H102V51H99.09V63H97.65Z"/></g></g></g></svg>